<svg width="139" height="180" viewBox="0 0 139 180" fill="none" xmlns="http://www.w3.org/2000/svg">
<g clip-path="url(#clip0_561_588)">
<mask id="mask0_561_588" style="mask-type:luminance" maskUnits="userSpaceOnUse" x="0" y="0" width="139" height="180">
<path d="M139 0H0V180H139V0Z" fill="white"/>
</mask>
<g mask="url(#mask0_561_588)">
<path d="M113.003 179.484H114.894V169.828H118.419L124.138 179.484H126.287L120.384 169.713C122.622 169.426 125.572 168.361 125.572 164.481C125.572 159.155 119.955 159.155 118.35 159.155H113.039L113.003 179.484ZM114.894 160.86H118.905C122.888 160.86 123.66 163.072 123.66 164.481C123.66 165.891 122.888 168.103 118.905 168.103H114.894V160.86ZM91.0096 179.484H103.877V177.759H92.9009V169.828H102.758V168.103H92.9009V160.86H103.415V159.135H91.0137L91.0096 179.484ZM71.4022 160.86H75.5852C77.7665 160.86 80.0009 161.896 80.0009 164.506C80.0009 167.115 77.8523 168.099 75.7036 168.099H71.4227L71.4022 160.86ZM69.5109 179.484H71.4022V169.828H75.7853C78.9674 169.828 81.9126 168.189 81.9126 164.502C81.9126 160.249 78.2362 159.127 75.3768 159.127H69.5314L69.5109 179.484ZM47.1136 176.927C48.6863 179.139 51.0392 180.004 53.7025 180.004C56.999 180.004 60.0095 177.956 60.0095 174.268C60.0095 166.624 49.5523 170.303 49.5523 164.178C49.5523 161.593 51.6723 160.327 54.1069 160.327C54.8828 160.296 55.6535 160.466 56.3457 160.818C57.0379 161.171 57.6284 161.696 58.0611 162.343L59.695 161.163C58.3225 159.352 56.374 158.606 54.1682 158.606C50.7573 158.606 47.661 160.561 47.661 164.182C47.661 171.913 58.1182 168.582 58.1182 174.273C58.1182 176.731 56.1085 178.267 53.5636 178.267C52.6309 178.304 51.7056 178.086 50.8872 177.636C50.0689 177.185 49.3884 176.52 48.9191 175.71L47.1136 176.927ZM25.8437 179.484H38.711V177.759H27.7758V169.828H37.6163V168.103H27.7758V160.86H38.2699V159.135H25.8641L25.8437 179.484ZM7.80897 179.484H9.70026L17.4084 159.135H15.4232L8.83018 176.98L2.29439 159.131H0.251953L7.80897 179.484Z" fill="white"/>
<path d="M46.4236 137.242C45.1981 137.242 44.5364 135.824 44.4057 135.546L0.043958 23.9988C0.00516102 23.9197 -0.0169017 23.8335 -0.0208432 23.7454C-0.0247848 23.6573 -0.01052 23.5694 0.0210545 23.4871C0.052629 23.4049 0.10083 23.3301 0.162629 23.2674C0.224427 23.2047 0.298486 23.1555 0.380151 23.1229C0.461815 23.0903 0.549319 23.075 0.637162 23.078C0.725005 23.081 0.811287 23.1021 0.890585 23.1401C0.969883 23.1781 1.04048 23.2322 1.09794 23.2989C1.15541 23.3656 1.19849 23.4435 1.22449 23.5277L45.5739 135.034C45.77 135.443 45.9824 135.96 46.346 135.96C46.7095 135.96 46.8321 135.759 47.1629 135.001C47.2345 134.847 47.3639 134.728 47.5229 134.67C47.6818 134.612 47.8573 134.62 48.0106 134.692C48.1639 134.763 48.2825 134.893 48.3403 135.053C48.3981 135.212 48.3905 135.388 48.319 135.542C47.7961 136.668 47.1507 137.238 46.4032 137.238" fill="white"/>
<path d="M51.906 137.242C50.6805 137.242 50.0188 135.824 49.8881 135.546L5.52638 23.9988C5.48758 23.9197 5.46552 23.8335 5.46158 23.7454C5.45764 23.6573 5.4719 23.5694 5.50348 23.4871C5.53505 23.4049 5.58325 23.3301 5.64505 23.2674C5.70685 23.2047 5.78091 23.1555 5.86257 23.1229C5.94424 23.0903 6.03174 23.075 6.11958 23.078C6.20743 23.081 6.29371 23.1021 6.37301 23.1401C6.45231 23.1781 6.5229 23.2322 6.58037 23.2989C6.63783 23.3656 6.68091 23.4435 6.70691 23.5277L51.0604 135.034C51.2565 135.443 51.4689 135.96 51.8325 135.96C52.196 135.96 52.3186 135.759 52.6495 135.001C52.721 134.847 52.8504 134.728 53.0094 134.67C53.1683 134.612 53.3438 134.62 53.4971 134.692C53.6504 134.763 53.769 134.893 53.8268 135.053C53.8847 135.212 53.877 135.388 53.8055 135.542C53.2826 136.668 52.6372 137.238 51.8897 137.238" fill="white"/>
<path d="M57.3669 137.242C56.1415 137.242 55.4838 135.824 55.349 135.546L10.9873 23.9988C10.9485 23.9197 10.9265 23.8335 10.9225 23.7454C10.9186 23.6573 10.9328 23.5694 10.9644 23.4871C10.996 23.4049 11.0442 23.3301 11.106 23.2674C11.1678 23.2047 11.2418 23.1555 11.3235 23.1229C11.4052 23.0903 11.4927 23.075 11.5805 23.078C11.6684 23.081 11.7546 23.1021 11.8339 23.1401C11.9132 23.1781 11.9838 23.2322 12.0413 23.2989C12.0988 23.3656 12.1418 23.4435 12.1678 23.5277L56.5173 135.034C56.7134 135.443 56.9258 135.96 57.2893 135.96C57.6529 135.96 57.7754 135.759 58.1063 135.001C58.1778 134.847 58.3073 134.728 58.4662 134.67C58.6252 134.612 58.8006 134.62 58.9539 134.692C59.1072 134.763 59.2258 134.893 59.2837 135.053C59.3415 135.212 59.3338 135.388 59.2623 135.542C58.7395 136.668 58.0981 137.238 57.3465 137.238" fill="white"/>
<path d="M62.824 137.242C61.5985 137.242 60.9368 135.824 60.8061 135.546L16.4443 23.9988C16.4056 23.9197 16.3835 23.8335 16.3795 23.7454C16.3756 23.6573 16.3899 23.5694 16.4214 23.4871C16.453 23.4049 16.5012 23.3301 16.563 23.2674C16.6248 23.2047 16.6989 23.1555 16.7805 23.1229C16.8622 23.0903 16.9497 23.075 17.0376 23.078C17.1254 23.081 17.2117 23.1021 17.291 23.1401C17.3703 23.1781 17.4409 23.2322 17.4983 23.2989C17.5558 23.3656 17.5989 23.4435 17.6249 23.5277L61.9784 135.034C62.1745 135.443 62.3869 135.96 62.7505 135.96C63.114 135.96 63.2365 135.759 63.5674 135.001C63.6028 134.925 63.6528 134.856 63.7146 134.8C63.7764 134.743 63.8486 134.699 63.9274 134.67C64.0061 134.642 64.0896 134.629 64.1733 134.632C64.257 134.636 64.3391 134.656 64.415 134.692C64.4909 134.727 64.5591 134.777 64.6157 134.839C64.6723 134.901 64.7161 134.974 64.7448 135.053C64.7734 135.132 64.7863 135.215 64.7826 135.299C64.779 135.383 64.7588 135.466 64.7234 135.542C64.2006 136.668 63.5593 137.238 62.8076 137.238" fill="white"/>
<path d="M68.3066 137.242C67.0811 137.242 66.4194 135.824 66.2887 135.546L21.9229 23.9988C21.8841 23.9197 21.862 23.8335 21.8581 23.7454C21.8541 23.6573 21.8684 23.5694 21.9 23.4871C21.9315 23.4049 21.9797 23.3301 22.0415 23.2674C22.1033 23.2047 22.1774 23.1555 22.2591 23.1229C22.3407 23.0903 22.4282 23.075 22.5161 23.078C22.6039 23.081 22.6902 23.1021 22.7695 23.1401C22.8488 23.1781 22.9194 23.2322 22.9769 23.2989C23.0343 23.3656 23.0774 23.4435 23.1034 23.5277L67.4569 135.034C67.653 135.443 67.8654 135.96 68.229 135.96C68.5925 135.96 68.7151 135.759 69.0459 135.001C69.0813 134.925 69.1314 134.856 69.1931 134.8C69.2549 134.743 69.3272 134.699 69.4059 134.67C69.4846 134.642 69.5682 134.629 69.6518 134.632C69.7355 134.636 69.8176 134.656 69.8935 134.692C69.9695 134.727 70.0376 134.777 70.0942 134.839C70.1508 134.901 70.1947 134.974 70.2233 135.053C70.2519 135.132 70.2648 135.215 70.2611 135.299C70.2575 135.383 70.2374 135.466 70.202 135.542C69.6791 136.668 69.0378 137.238 68.2862 137.238" fill="white"/>
<path d="M73.7872 137.242C72.5618 137.242 71.9041 135.824 71.7693 135.546L27.4076 23.9989C27.3754 23.9207 27.359 23.8367 27.3594 23.7521C27.3598 23.6674 27.3769 23.5836 27.4099 23.5057C27.4428 23.4277 27.4909 23.3571 27.5513 23.2979C27.6117 23.2387 27.6832 23.1922 27.7617 23.161C27.8402 23.1298 27.9241 23.1145 28.0085 23.1161C28.0929 23.1177 28.1762 23.136 28.2535 23.1702C28.3307 23.2043 28.4005 23.2535 28.4586 23.3149C28.5168 23.3763 28.5622 23.4487 28.5922 23.5278L72.9376 135.034C73.1336 135.443 73.3461 135.96 73.7096 135.96C74.0732 135.96 74.1957 135.759 74.5266 135.001C74.562 134.925 74.612 134.857 74.6738 134.8C74.7355 134.743 74.8078 134.699 74.8865 134.67C74.9652 134.642 75.0488 134.629 75.1325 134.632C75.2161 134.636 75.2983 134.656 75.3742 134.692C75.4501 134.727 75.5183 134.777 75.5749 134.839C75.6314 134.901 75.6753 134.974 75.7039 135.053C75.7326 135.132 75.7454 135.215 75.7418 135.299C75.7381 135.383 75.718 135.466 75.6826 135.542C75.1597 136.668 74.5184 137.238 73.7668 137.238" fill="white"/>
<path d="M79.2654 137.242C78.0399 137.242 77.3823 135.824 77.2475 135.546L32.8858 23.9988C32.847 23.9197 32.8249 23.8335 32.821 23.7454C32.817 23.6573 32.8313 23.5694 32.8629 23.4871C32.8944 23.4049 32.9426 23.3301 33.0044 23.2674C33.0662 23.2047 33.1403 23.1555 33.2219 23.1229C33.3036 23.0903 33.3911 23.075 33.479 23.078C33.5668 23.081 33.6531 23.1021 33.7324 23.1401C33.8117 23.1781 33.8823 23.2322 33.9397 23.2989C33.9972 23.3656 34.0403 23.4435 34.0663 23.5277L78.428 135.034C78.6241 135.443 78.8365 135.96 79.2 135.96C79.5636 135.96 79.6861 135.759 80.017 135.001C80.0524 134.925 80.1024 134.856 80.1642 134.8C80.2259 134.743 80.2982 134.699 80.3769 134.67C80.4556 134.642 80.5392 134.629 80.6229 134.632C80.7066 134.636 80.7887 134.656 80.8646 134.692C80.9405 134.727 81.0087 134.777 81.0653 134.839C81.1219 134.901 81.1657 134.974 81.1944 135.053C81.223 135.132 81.2359 135.215 81.2322 135.299C81.2285 135.383 81.2084 135.466 81.173 135.542C80.6502 136.668 80.0088 137.238 79.2572 137.238" fill="white"/>
<path d="M105.768 0.0572472C105.616 -0.00473613 105.445 -0.00476031 105.292 0.0571797C105.14 0.11912 105.018 0.238159 104.951 0.389086C97.8883 16.8499 47.5382 134.194 47.1828 135.009C47.1281 135.16 47.1322 135.326 47.1942 135.475C47.2562 135.623 47.3717 135.742 47.5175 135.809C47.6633 135.875 47.8288 135.884 47.981 135.834C48.1332 135.784 48.261 135.678 48.3388 135.538C48.4491 135.3 99.3057 16.7967 106.103 0.892989C106.164 0.739562 106.164 0.568108 106.101 0.415091C106.039 0.262075 105.919 0.139571 105.768 0.0736343" fill="white"/>
<path d="M53.2413 135.906C53.1479 135.907 53.0557 135.886 52.9717 135.845C52.8205 135.774 52.7033 135.646 52.6452 135.489C52.5871 135.332 52.5929 135.158 52.6612 135.005C53.0411 134.141 103.346 16.8787 110.413 0.409662C110.487 0.265147 110.612 0.154085 110.764 0.0989999C110.917 0.0439148 111.084 0.04893 111.233 0.113028C111.381 0.177127 111.5 0.29551 111.565 0.44417C111.629 0.592831 111.635 0.760639 111.581 0.913565C104.776 16.7968 53.9194 135.308 53.8172 135.538C53.766 135.648 53.6847 135.741 53.5827 135.806C53.4807 135.871 53.3623 135.906 53.2413 135.906Z" fill="white"/>
<path d="M58.7027 135.906C58.5969 135.906 58.4929 135.879 58.4001 135.828C58.3072 135.777 58.2285 135.704 58.1709 135.615C58.1134 135.526 58.0788 135.424 58.0704 135.318C58.062 135.212 58.0799 135.106 58.1226 135.009C58.478 134.19 108.812 16.8909 115.875 0.393193C115.904 0.310755 115.949 0.235189 116.009 0.171173C116.068 0.107157 116.14 0.0560533 116.22 0.0210253C116.3 -0.0140027 116.386 -0.0322094 116.473 -0.0324679C116.561 -0.0327264 116.647 -0.0150312 116.727 0.0195225C116.807 0.0540761 116.879 0.104753 116.939 0.168415C116.999 0.232078 117.045 0.307372 117.075 0.389636C117.104 0.4719 117.117 0.559383 117.111 0.646671C117.106 0.733958 117.082 0.819192 117.043 0.897096C110.229 16.7967 59.389 135.296 59.2827 135.538C59.2312 135.647 59.1497 135.74 59.0478 135.805C58.9459 135.871 58.8277 135.906 58.7068 135.906" fill="white"/>
<path d="M64.1637 135.906C64.0703 135.906 63.9782 135.885 63.8941 135.845C63.7479 135.774 63.6344 135.649 63.5767 135.497C63.519 135.345 63.5215 135.176 63.5836 135.025C63.9308 134.243 114.236 16.985 121.34 0.4054C121.369 0.322962 121.414 0.247396 121.474 0.18338C121.533 0.119364 121.605 0.0682603 121.685 0.0332323C121.765 -0.00179564 121.851 -0.0200024 121.938 -0.0202609C122.026 -0.0205194 122.112 -0.00282413 122.192 0.0317295C122.272 0.0662831 122.344 0.11696 122.404 0.180622C122.464 0.244285 122.51 0.319579 122.54 0.401843C122.569 0.484107 122.582 0.57159 122.576 0.658878C122.571 0.746165 122.548 0.831399 122.508 0.909303C114.979 18.5254 64.8581 135.284 64.7437 135.558C64.6925 135.668 64.6112 135.761 64.5092 135.826C64.4072 135.892 64.2887 135.926 64.1677 135.927" fill="white"/>
<path d="M75.1246 135.906C75.0188 135.906 74.9148 135.879 74.8219 135.828C74.7291 135.777 74.6504 135.704 74.5928 135.615C74.5352 135.526 74.5007 135.424 74.4923 135.318C74.4838 135.212 74.5018 135.106 74.5445 135.009C74.904 134.19 125.217 16.9319 132.296 0.389115C132.363 0.233198 132.489 0.110211 132.646 0.0472113C132.803 -0.0157888 132.978 -0.0136419 133.134 0.0531799C133.289 0.120002 133.412 0.246024 133.475 0.403525C133.538 0.561025 133.535 0.737101 133.469 0.893019C126.631 16.85 75.8108 135.3 75.7005 135.538C75.6493 135.648 75.568 135.741 75.466 135.806C75.364 135.871 75.2456 135.906 75.1246 135.906Z" fill="white"/>
<path d="M69.618 135.947C69.5246 135.948 69.4324 135.927 69.3484 135.886C69.2015 135.815 69.0874 135.691 69.0296 135.539C68.9718 135.386 68.9748 135.217 69.0379 135.067C69.4464 134.1 119.739 16.9565 126.818 0.409623C126.885 0.253706 127.011 0.130719 127.168 0.0677191C127.325 0.00471901 127.5 0.00686596 127.656 0.0736877C127.811 0.140509 127.934 0.266532 127.997 0.424033C128.06 0.581533 128.057 0.757609 127.991 0.913527C121.157 16.8909 70.3001 135.366 70.1939 135.599C70.1427 135.709 70.0614 135.802 69.9594 135.867C69.8574 135.933 69.739 135.968 69.618 135.968" fill="white"/>
<path d="M80.605 135.906C80.4992 135.906 80.3952 135.879 80.3024 135.828C80.2096 135.777 80.1308 135.704 80.0733 135.615C80.0157 135.526 79.9812 135.424 79.9727 135.318C79.9643 135.212 79.9823 135.106 80.025 135.009C80.3844 134.19 130.698 16.9319 137.777 0.389115C137.844 0.233198 137.969 0.110211 138.126 0.0472113C138.283 -0.0157888 138.459 -0.0136419 138.614 0.0531799C138.77 0.120002 138.892 0.246024 138.955 0.403525C139.018 0.561025 139.016 0.737101 138.949 0.893019C132.111 16.85 81.2872 135.3 81.181 135.538C81.1298 135.648 81.0485 135.741 80.9465 135.806C80.8445 135.871 80.726 135.906 80.605 135.906Z" fill="white"/>
</g>
</g>
<defs>
<clipPath id="clip0_561_588">
<rect width="139" height="180" fill="white"/>
</clipPath>
</defs>
</svg>
