<svg width="76" height="81" viewBox="0 0 76 81" fill="none" xmlns="http://www.w3.org/2000/svg">
<path d="M8.42188 12.6316V54.7369H54.7377" stroke="#222222" stroke-width="2"/>
<path d="M25.2617 12.6316V37.8947H75.788" stroke="#222222" stroke-width="2"/>
<path d="M54.5 51.5C56.1569 51.5 57.5 52.8431 57.5 54.5C57.5 56.1569 56.1569 57.5 54.5 57.5C52.8431 57.5 51.5 56.1569 51.5 54.5C51.5 52.8431 52.8431 51.5 54.5 51.5Z" fill="#111111" stroke="#222222"/>
<path d="M25.5 34.5C27.1569 34.5 28.5 35.8431 28.5 37.5C28.5 39.1569 27.1569 40.5 25.5 40.5C23.8431 40.5 22.5 39.1569 22.5 37.5C22.5 35.8431 23.8431 34.5 25.5 34.5Z" fill="#111111" stroke="#222222"/>
<path d="M0 80H75.7895" stroke="#222222" stroke-width="2"/>
<path d="M8.42188 12.6316V0" stroke="#222222" stroke-dasharray="8 8"/>
</svg>
