<svg width="370" height="56" viewBox="0 0 370 56" fill="none" xmlns="http://www.w3.org/2000/svg">
<path d="M9.22571 55.0261H0V0.892752H9.55229V38.4696L37.3927 0.892752H47.1899V55.0261H37.6376V16.3942L9.22571 55.0261Z" fill="#E2E0DB"/>
<path d="M84.8869 56C68.8031 56 56.3117 44.6377 56.3117 28C56.3117 11.3623 68.8031 0 84.8869 0C95.9088 0 102.685 5.68116 106.767 12.1739L98.603 16.313C95.9904 11.8493 90.7652 8.44058 84.8869 8.44058C74.11 8.44058 66.1089 16.6377 66.1089 28C66.1089 39.3623 74.11 47.5594 84.8869 47.5594C90.7652 47.5594 95.9904 44.2319 98.603 39.687L106.767 43.8261C102.604 50.3188 95.9088 56 84.8869 56Z" fill="#E2E0DB"/>
<path d="M136.946 55.0261H127.394V9.25218H110.902V0.892752H153.438V9.25218H136.946V55.0261Z" fill="#E2E0DB"/>
<path d="M184.851 56C168.522 56 157.011 44.1507 157.011 28C157.011 11.8493 168.522 0 184.851 0C201.18 0 212.691 11.8493 212.691 28C212.691 44.1507 201.18 56 184.851 56ZM184.851 47.5594C195.791 47.5594 202.894 39.1188 202.894 28C202.894 16.8 195.791 8.44058 184.851 8.44058C173.829 8.44058 166.808 16.8 166.808 28C166.808 39.1188 173.829 47.5594 184.851 47.5594Z" fill="#E2E0DB"/>
<path d="M231.441 55.0261H221.889V0.892752H245.81C257.24 0.892752 263.608 8.68406 263.608 17.8551C263.608 27.0261 257.158 34.8174 245.81 34.8174H231.441V55.0261ZM244.504 26.458C249.892 26.458 253.811 23.0493 253.811 17.8551C253.811 12.6609 249.892 9.25218 244.504 9.25218H231.441V26.458H244.504Z" fill="#E2E0DB"/>
<path d="M280.786 55.0261H271.56V0.892752H281.113V38.4696L308.953 0.892752H318.75V55.0261H309.198V16.3942L280.786 55.0261Z" fill="#E2E0DB"/>
<path d="M338.894 55.0261H327.872L341.18 33.7623C334.648 32.7072 328.28 27.513 328.28 17.8551C328.28 7.87246 335.302 0.892752 346.078 0.892752H370V55.0261H360.448V34.8174H350.977L338.894 55.0261ZM347.385 26.458H360.448V9.25218H347.385C341.996 9.25218 338.077 12.6609 338.077 17.8551C338.077 23.0493 341.996 26.458 347.385 26.458Z" fill="#E2E0DB"/>
</svg>
