<svg width="370" height="87" viewBox="0 0 370 87" fill="none" xmlns="http://www.w3.org/2000/svg">
<path d="M16.2496 36.15C12.6163 36.15 9.58294 35.3833 7.14961 33.85C4.74961 32.2833 2.94961 30.15 1.74961 27.45C0.582943 24.7167 -0.000390604 21.6 -0.000390604 18.1C-0.000390604 14.6333 0.599609 11.55 1.79961 8.85C2.99961 6.11667 4.79961 3.96667 7.19961 2.4C9.63294 0.799998 12.6829 -1.66893e-06 16.3496 -1.66893e-06C18.9496 -1.66893e-06 21.1829 0.416665 23.0496 1.25C24.9496 2.05 26.4829 3.16667 27.6496 4.6C28.8163 6.03333 29.6163 7.71666 30.0496 9.65H25.6496C25.1496 7.91667 24.0663 6.53333 22.3996 5.5C20.7663 4.46667 18.6996 3.95 16.1996 3.95C13.3996 3.95 11.1329 4.61667 9.39961 5.95C7.69961 7.25 6.44961 8.96666 5.64961 11.1C4.84961 13.2 4.44961 15.4833 4.44961 17.95C4.44961 20.55 4.86628 22.9333 5.69961 25.1C6.53294 27.2667 7.83294 29 9.59961 30.3C11.3663 31.5667 13.6163 32.2 16.3496 32.2C18.0163 32.2 19.4996 31.9667 20.7996 31.5C22.1329 31.0333 23.2329 30.3667 24.0996 29.5C24.9996 28.6333 25.6163 27.6333 25.9496 26.5H30.6996C30.1996 28.4333 29.2996 30.1333 27.9996 31.6C26.7329 33.0333 25.1163 34.15 23.1496 34.95C21.1829 35.75 18.8829 36.15 16.2496 36.15ZM52.0988 36.15C48.4322 36.15 45.3655 35.3667 42.8988 33.8C40.4322 32.2333 38.5655 30.0833 37.2988 27.35C36.0655 24.6167 35.4488 21.5333 35.4488 18.1C35.4488 14.6333 36.0655 11.5333 37.2988 8.8C38.5655 6.06666 40.4322 3.91666 42.8988 2.35C45.3655 0.783332 48.4322 -1.66893e-06 52.0988 -1.66893e-06C55.7655 -1.66893e-06 58.8155 0.783332 61.2488 2.35C63.7155 3.91666 65.5655 6.06666 66.7988 8.8C68.0655 11.5333 68.6988 14.6333 68.6988 18.1C68.6988 21.5333 68.0655 24.6167 66.7988 27.35C65.5655 30.0833 63.7155 32.2333 61.2488 33.8C58.8155 35.3667 55.7655 36.15 52.0988 36.15ZM52.0988 32.2C54.8988 32.2 57.1988 31.5667 58.9988 30.3C60.7988 29 62.1155 27.2833 62.9488 25.15C63.8155 23.0167 64.2488 20.6667 64.2488 18.1C64.2488 16.1667 63.9988 14.35 63.4988 12.65C63.0322 10.9167 62.2988 9.4 61.2988 8.1C60.2988 6.8 59.0322 5.78333 57.4988 5.05C55.9655 4.31667 54.1655 3.95 52.0988 3.95C49.3322 3.95 47.0322 4.6 45.1988 5.9C43.3988 7.2 42.0488 8.91667 41.1488 11.05C40.2822 13.1833 39.8488 15.5333 39.8488 18.1C39.8488 20.6333 40.2822 22.9667 41.1488 25.1C42.0155 27.2333 43.3488 28.95 45.1488 30.25C46.9822 31.55 49.2988 32.2 52.0988 32.2ZM75.4359 35.75V0.399999H80.9859L99.4359 29.85V0.399999H103.786V35.75H98.3359L79.7859 6.4V35.75H75.4359ZM125.246 36.15C123.013 36.15 120.896 35.85 118.896 35.25C116.93 34.6167 115.246 33.6 113.846 32.2C112.446 30.7667 111.496 28.8667 110.996 26.5H115.546C116.013 28 116.763 29.1667 117.796 30C118.863 30.8333 120.08 31.4167 121.446 31.75C122.813 32.05 124.18 32.2 125.546 32.2C126.913 32.2 128.18 32.0167 129.346 31.65C130.546 31.25 131.513 30.6167 132.246 29.75C133.013 28.8833 133.396 27.7667 133.396 26.4C133.396 25.3333 133.196 24.4667 132.796 23.8C132.43 23.1333 131.896 22.6 131.196 22.2C130.53 21.7667 129.73 21.4167 128.796 21.15C127.563 20.75 126.246 20.4167 124.846 20.15C123.446 19.8833 122.063 19.5667 120.696 19.2C119.363 18.8333 118.113 18.3667 116.946 17.8C116.313 17.4667 115.696 17.0667 115.096 16.6C114.53 16.1 114.03 15.5333 113.596 14.9C113.196 14.2333 112.863 13.4833 112.596 12.65C112.363 11.8167 112.246 10.9 112.246 9.9C112.246 8.4 112.48 7.1 112.946 6C113.413 4.9 114.046 3.96667 114.846 3.2C115.646 2.43333 116.58 1.81667 117.646 1.35C118.713 0.883332 119.846 0.549999 121.046 0.35C122.28 0.116665 123.513 -1.66893e-06 124.746 -1.66893e-06C126.78 -1.66893e-06 128.68 0.316665 130.446 0.949998C132.246 1.55 133.73 2.53333 134.896 3.9C136.096 5.26667 136.746 7.11667 136.846 9.45H132.596C132.43 8.05 131.963 6.95 131.196 6.15C130.43 5.35 129.48 4.78333 128.346 4.45C127.213 4.11666 126.013 3.95 124.746 3.95C123.813 3.95 122.863 4.03333 121.896 4.2C120.963 4.36666 120.096 4.66666 119.296 5.1C118.53 5.5 117.913 6.06667 117.446 6.8C116.98 7.5 116.746 8.4 116.746 9.5C116.746 10.3667 116.896 11.1333 117.196 11.8C117.53 12.4667 117.963 13.0333 118.496 13.5C119.063 13.9333 119.68 14.3 120.346 14.6C121.946 15.2667 123.713 15.7667 125.646 16.1C127.613 16.4 129.446 16.85 131.146 17.45C132.146 17.7833 133.063 18.2 133.896 18.7C134.73 19.2 135.43 19.7833 135.996 20.45C136.596 21.1167 137.046 21.8833 137.346 22.75C137.68 23.5833 137.846 24.5333 137.846 25.6C137.846 27.5333 137.513 29.1833 136.846 30.55C136.18 31.8833 135.263 32.9667 134.096 33.8C132.93 34.6333 131.58 35.2333 130.046 35.6C128.546 35.9667 126.946 36.15 125.246 36.15ZM152.325 35.75V4.35H140.975V0.399999H168.025V4.35H156.675V35.75H152.325ZM173.092 35.75V0.399999H186.342C188.309 0.399999 190.059 0.599999 191.592 0.999997C193.159 1.4 194.492 2.03333 195.592 2.9C196.692 3.76667 197.526 4.91667 198.092 6.35C198.692 7.75 198.992 9.45 198.992 11.45C198.992 13.4167 198.626 15.1 197.892 16.5C197.159 17.8667 196.192 18.9833 194.992 19.85C193.792 20.7167 192.492 21.35 191.092 21.75L198.492 35.75H193.742L186.692 22.5H177.442V35.75H173.092ZM177.442 18.55H184.942C186.242 18.55 187.459 18.45 188.592 18.25C189.759 18.05 190.776 17.7 191.642 17.2C192.542 16.6667 193.242 15.9333 193.742 15C194.242 14.0333 194.509 12.8 194.542 11.3C194.576 9.6 194.259 8.25 193.592 7.25C192.926 6.21667 191.942 5.48333 190.642 5.05C189.342 4.58333 187.759 4.35 185.892 4.35H177.442V18.55ZM219.802 36.15C216.502 36.15 213.819 35.4667 211.752 34.1C209.686 32.7333 208.169 30.8833 207.202 28.55C206.236 26.1833 205.752 23.5 205.752 20.5V0.399999H210.102V20.45C210.102 22.5833 210.402 24.55 211.002 26.35C211.636 28.1167 212.669 29.5333 214.102 30.6C215.536 31.6667 217.452 32.2 219.852 32.2C222.286 32.2 224.186 31.6667 225.552 30.6C226.952 29.5333 227.952 28.1167 228.552 26.35C229.152 24.55 229.452 22.5833 229.452 20.45V0.399999H233.852V20.5C233.852 23.4667 233.369 26.1333 232.402 28.5C231.436 30.8667 229.919 32.7333 227.852 34.1C225.786 35.4667 223.102 36.15 219.802 36.15ZM256.582 36.15C252.948 36.15 249.915 35.3833 247.482 33.85C245.082 32.2833 243.282 30.15 242.082 27.45C240.915 24.7167 240.332 21.6 240.332 18.1C240.332 14.6333 240.932 11.55 242.132 8.85C243.332 6.11667 245.132 3.96667 247.532 2.4C249.965 0.799998 253.015 -1.66893e-06 256.682 -1.66893e-06C259.282 -1.66893e-06 261.515 0.416665 263.382 1.25C265.282 2.05 266.815 3.16667 267.982 4.6C269.148 6.03333 269.948 7.71666 270.382 9.65H265.982C265.482 7.91667 264.398 6.53333 262.732 5.5C261.098 4.46667 259.032 3.95 256.532 3.95C253.732 3.95 251.465 4.61667 249.732 5.95C248.032 7.25 246.782 8.96666 245.982 11.1C245.182 13.2 244.782 15.4833 244.782 17.95C244.782 20.55 245.198 22.9333 246.032 25.1C246.865 27.2667 248.165 29 249.932 30.3C251.698 31.5667 253.948 32.2 256.682 32.2C258.348 32.2 259.832 31.9667 261.132 31.5C262.465 31.0333 263.565 30.3667 264.432 29.5C265.332 28.6333 265.948 27.6333 266.282 26.5H271.032C270.532 28.4333 269.632 30.1333 268.332 31.6C267.065 33.0333 265.448 34.15 263.482 34.95C261.515 35.75 259.215 36.15 256.582 36.15ZM285.187 35.75V4.35H273.837V0.399999H300.887V4.35H289.537V35.75H285.187ZM320.654 36.15C316.987 36.15 313.92 35.3667 311.454 33.8C308.987 32.2333 307.12 30.0833 305.854 27.35C304.62 24.6167 304.004 21.5333 304.004 18.1C304.004 14.6333 304.62 11.5333 305.854 8.8C307.12 6.06666 308.987 3.91666 311.454 2.35C313.92 0.783332 316.987 -1.66893e-06 320.654 -1.66893e-06C324.32 -1.66893e-06 327.37 0.783332 329.804 2.35C332.27 3.91666 334.12 6.06666 335.354 8.8C336.62 11.5333 337.254 14.6333 337.254 18.1C337.254 21.5333 336.62 24.6167 335.354 27.35C334.12 30.0833 332.27 32.2333 329.804 33.8C327.37 35.3667 324.32 36.15 320.654 36.15ZM320.654 32.2C323.454 32.2 325.754 31.5667 327.554 30.3C329.354 29 330.67 27.2833 331.504 25.15C332.37 23.0167 332.804 20.6667 332.804 18.1C332.804 16.1667 332.554 14.35 332.054 12.65C331.587 10.9167 330.854 9.4 329.854 8.1C328.854 6.8 327.587 5.78333 326.054 5.05C324.52 4.31667 322.72 3.95 320.654 3.95C317.887 3.95 315.587 4.6 313.754 5.9C311.954 7.2 310.604 8.91667 309.704 11.05C308.837 13.1833 308.404 15.5333 308.404 18.1C308.404 20.6333 308.837 22.9667 309.704 25.1C310.57 27.2333 311.904 28.95 313.704 30.25C315.537 31.55 317.854 32.2 320.654 32.2ZM343.991 35.75V0.399999H357.241C359.207 0.399999 360.957 0.599999 362.491 0.999997C364.057 1.4 365.391 2.03333 366.491 2.9C367.591 3.76667 368.424 4.91667 368.991 6.35C369.591 7.75 369.891 9.45 369.891 11.45C369.891 13.4167 369.524 15.1 368.791 16.5C368.057 17.8667 367.091 18.9833 365.891 19.85C364.691 20.7167 363.391 21.35 361.991 21.75L369.391 35.75H364.641L357.591 22.5H348.341V35.75H343.991ZM348.341 18.55H355.841C357.141 18.55 358.357 18.45 359.491 18.25C360.657 18.05 361.674 17.7 362.541 17.2C363.441 16.6667 364.141 15.9333 364.641 15C365.141 14.0333 365.407 12.8 365.441 11.3C365.474 9.6 365.157 8.25 364.491 7.25C363.824 6.21667 362.841 5.48333 361.541 5.05C360.241 4.58333 358.657 4.35 356.791 4.35H348.341V18.55ZM16.2996 86.15C12.6329 86.15 9.58294 85.3833 7.14961 83.85C4.74961 82.2833 2.94961 80.15 1.74961 77.45C0.582943 74.75 -0.000390604 71.6667 -0.000390604 68.2C-0.000390604 65.6 0.316276 63.2 0.949609 61C1.61628 58.8 2.61628 56.8833 3.94961 55.25C5.28294 53.5833 6.94961 52.3 8.94961 51.4C10.9829 50.4667 13.3663 50 16.0996 50C18.6996 50 20.9663 50.4 22.8996 51.2C24.8329 52 26.4163 53.1167 27.6496 54.55C28.9163 55.9833 29.7996 57.6833 30.2996 59.65H25.5496C25.2163 58.4833 24.6163 57.4833 23.7496 56.65C22.8829 55.7833 21.7996 55.1167 20.4996 54.65C19.1996 54.1833 17.7163 53.95 16.0496 53.95C13.9829 53.95 12.2163 54.3167 10.7496 55.05C9.28294 55.7833 8.08294 56.8 7.14961 58.1C6.21628 59.3667 5.53294 60.8667 5.09961 62.6C4.66628 64.3 4.44961 66.1333 4.44961 68.1C4.44961 70.7 4.86628 73.0667 5.69961 75.2C6.53294 77.3333 7.81628 79.0333 9.54961 80.3C11.2829 81.5667 13.5163 82.2 16.2496 82.2C18.5163 82.2 20.4496 81.8 22.0496 81C23.6496 80.1667 24.8829 78.9833 25.7496 77.45C26.6163 75.8833 27.0496 74.0167 27.0496 71.85H15.4496V67.9H31.1996V70.85C31.1996 73.9167 30.5996 76.6 29.3996 78.9C28.1996 81.2 26.4829 82.9833 24.2496 84.25C22.0496 85.5167 19.3996 86.15 16.2996 86.15ZM37.9359 85.75V50.4H51.1859C53.1526 50.4 54.9026 50.6 56.4359 51C58.0026 51.4 59.3359 52.0333 60.4359 52.9C61.5359 53.7667 62.3693 54.9167 62.9359 56.35C63.5359 57.75 63.8359 59.45 63.8359 61.45C63.8359 63.4167 63.4693 65.1 62.7359 66.5C62.0026 67.8667 61.0359 68.9833 59.8359 69.85C58.6359 70.7167 57.3359 71.35 55.9359 71.75L63.3359 85.75H58.5859L51.5359 72.5H42.2859V85.75H37.9359ZM42.2859 68.55H49.7859C51.0859 68.55 52.3026 68.45 53.4359 68.25C54.6026 68.05 55.6193 67.7 56.4859 67.2C57.3859 66.6667 58.0859 65.9333 58.5859 65C59.0859 64.0333 59.3526 62.8 59.3859 61.3C59.4193 59.6 59.1026 58.25 58.4359 57.25C57.7693 56.2167 56.7859 55.4833 55.4859 55.05C54.1859 54.5833 52.6026 54.35 50.7359 54.35H42.2859V68.55ZM85.5461 86.15C81.8794 86.15 78.8128 85.3667 76.3461 83.8C73.8794 82.2333 72.0128 80.0833 70.7461 77.35C69.5128 74.6167 68.8961 71.5333 68.8961 68.1C68.8961 64.6333 69.5128 61.5333 70.7461 58.8C72.0128 56.0667 73.8794 53.9167 76.3461 52.35C78.8128 50.7833 81.8794 50 85.5461 50C89.2128 50 92.2628 50.7833 94.6961 52.35C97.1628 53.9167 99.0128 56.0667 100.246 58.8C101.513 61.5333 102.146 64.6333 102.146 68.1C102.146 71.5333 101.513 74.6167 100.246 77.35C99.0128 80.0833 97.1628 82.2333 94.6961 83.8C92.2628 85.3667 89.2128 86.15 85.5461 86.15ZM85.5461 82.2C88.3461 82.2 90.6461 81.5667 92.4461 80.3C94.2461 79 95.5628 77.2833 96.3961 75.15C97.2628 73.0167 97.6961 70.6667 97.6961 68.1C97.6961 66.1667 97.4461 64.35 96.9461 62.65C96.4794 60.9167 95.7461 59.4 94.7461 58.1C93.7461 56.8 92.4794 55.7833 90.9461 55.05C89.4128 54.3167 87.6128 53.95 85.5461 53.95C82.7794 53.95 80.4794 54.6 78.6461 55.9C76.8461 57.2 75.4961 58.9167 74.5961 61.05C73.7294 63.1833 73.2961 65.5333 73.2961 68.1C73.2961 70.6333 73.7294 72.9667 74.5961 75.1C75.4628 77.2333 76.7961 78.95 78.5961 80.25C80.4294 81.55 82.7461 82.2 85.5461 82.2ZM122.683 86.15C119.383 86.15 116.7 85.4667 114.633 84.1C112.567 82.7333 111.05 80.8833 110.083 78.55C109.117 76.1833 108.633 73.5 108.633 70.5V50.4H112.983V70.45C112.983 72.5833 113.283 74.55 113.883 76.35C114.517 78.1167 115.55 79.5333 116.983 80.6C118.417 81.6667 120.333 82.2 122.733 82.2C125.167 82.2 127.067 81.6667 128.433 80.6C129.833 79.5333 130.833 78.1167 131.433 76.35C132.033 74.55 132.333 72.5833 132.333 70.45V50.4H136.733V70.5C136.733 73.4667 136.25 76.1333 135.283 78.5C134.317 80.8667 132.8 82.7333 130.733 84.1C128.667 85.4667 125.983 86.15 122.683 86.15ZM145.163 85.75V50.4H157.413C160.013 50.4 162.246 50.8333 164.113 51.7C165.979 52.5333 167.396 53.8167 168.362 55.55C169.363 57.2833 169.863 59.4833 169.863 62.15C169.863 64.75 169.279 66.95 168.113 68.75C166.979 70.5167 165.413 71.85 163.413 72.75C161.413 73.65 159.113 74.1 156.513 74.1H149.513V85.75H145.163ZM149.513 70.15H156.313C159.013 70.15 161.196 69.5167 162.863 68.25C164.563 66.95 165.413 64.85 165.413 61.95C165.413 59.4167 164.729 57.5167 163.363 56.25C161.996 54.9833 159.946 54.35 157.213 54.35H149.513V70.15Z" fill="#222222"/>
</svg>
