<svg width="249" height="36" viewBox="0 0 249 36" fill="none" xmlns="http://www.w3.org/2000/svg">
<path fill-rule="evenodd" clip-rule="evenodd" d="M137.415 18.3063V0.135687H141.114V14.5105H153.252V0.135687H156.951V18.3063H137.415ZM45.1392 18.1708V0.135687H64.5428V18.1708H60.8441V3.79724H48.8379V18.1708H45.1392ZM68.2427 18.1708V14.5105H84.0782V11.2557H68.1097V0.135687H87.6451V3.79724H71.8084V7.59424H87.6451V18.1708H68.2427ZM99.1304 18.1708V3.79724H91.212V0.135687H110.614V3.79724H102.696V18.1708H99.1304ZM114.318 18.1708V0.135687H133.713V7.59424H130.15V3.79724H118.012V7.59424H130.146V11.2557H118.012V18.1708H114.318ZM130.151 18.1708V11.2557H133.713V18.1708H130.151ZM160.386 18.1708V0.000160217H179.921V3.66164H164.085V14.3737H179.921V18.0352H160.385L160.386 18.1708ZM191.407 18.1708V3.79724H183.488V0.135687H202.891V3.79724H194.975V18.1708H191.407ZM206.459 18.1708V0.000160217H225.994V18.0352H206.458L206.459 18.1708ZM229.56 18.1708V0.135687H248.964V7.59424H245.4V3.79724H233.259V7.59424H245.397V11.2557H233.259V18.1708H229.56ZM245.398 18.1708V11.2557H248.964V18.1708H245.398ZM0 18.0352V0.000160217H18.603V3.66164H3.56568V14.3737H18.4699V18.0352H0ZM22.0368 18.0352V0.000160217H41.5723V18.0352H22.0368ZM37.8735 14.5105V3.79724H25.7343V14.5105H37.8735ZM222.294 14.5105V3.79724H210.156V14.5105H222.294Z" fill="#111111"/>
<path d="M46.7387 35.7925C44.7289 35.7925 43.168 34.3511 43.168 32.2406C43.168 30.13 44.7289 28.6886 46.7387 28.6886C48.116 28.6886 48.9627 29.4093 49.4728 30.233L48.4526 30.758C48.1262 30.1918 47.4732 29.7594 46.7387 29.7594C45.392 29.7594 44.3922 30.7992 44.3922 32.2406C44.3922 33.6819 45.392 34.7218 46.7387 34.7218C47.4732 34.7218 48.1262 34.2997 48.4526 33.7231L49.4728 34.2482C48.9525 35.0718 48.116 35.7925 46.7387 35.7925Z" fill="#111111"/>
<path d="M54.4682 35.669H53.2745V29.8623H51.2137V28.8019H56.529V29.8623H54.4682V35.669Z" fill="#111111"/>
<path d="M59.9584 35.669H58.7648V28.8019H61.754C63.1823 28.8019 63.978 29.7902 63.978 30.9536C63.978 32.117 63.1721 33.1054 61.754 33.1054H59.9584V35.669ZM61.5907 32.045C62.2641 32.045 62.7538 31.6125 62.7538 30.9536C62.7538 30.2947 62.2641 29.8623 61.5907 29.8623H59.9584V32.045H61.5907Z" fill="#111111"/>
<path d="M69.3688 35.7925C67.3284 35.7925 65.8899 34.2894 65.8899 32.2406C65.8899 30.1918 67.3284 28.6886 69.3688 28.6886C71.4092 28.6886 72.8477 30.1918 72.8477 32.2406C72.8477 34.2894 71.4092 35.7925 69.3688 35.7925ZM69.3688 34.7218C70.7358 34.7218 71.6234 33.6511 71.6234 32.2406C71.6234 30.8198 70.7358 29.7594 69.3688 29.7594C67.9915 29.7594 67.1141 30.8198 67.1141 32.2406C67.1141 33.6511 67.9915 34.7218 69.3688 34.7218Z" fill="#111111"/>
<path d="M76.374 35.669H75.2212V28.8019H76.4148V33.5687L79.8937 28.8019H81.118V35.669H79.9243V30.7683L76.374 35.669Z" fill="#111111"/>
<path d="M86.6039 35.669H85.4102V29.8623H83.3494V28.8019H88.6647V29.8623H86.6039V35.669Z" fill="#111111"/>
<path d="M95.5628 35.669H90.9005V28.8019H95.5628V29.8623H92.0941V31.6434H95.4914V32.7039H92.0941V34.6085H95.5628V35.669Z" fill="#111111"/>
<path d="M97.5741 35.7925V34.7218C98.3087 34.7218 98.6861 34.3614 98.9208 32.3332L99.3187 28.8019H103.94V35.669H102.747V29.8623H100.39L100.104 32.4156C99.7778 35.3292 98.8902 35.7925 97.5741 35.7925Z" fill="#111111"/>
<path d="M106.61 28.8019H107.803V31.3655H109.599C111.017 31.3655 111.823 32.3538 111.823 33.5172C111.823 34.6806 111.027 35.669 109.599 35.669H106.61V28.8019ZM109.436 32.4259H107.803V34.6085H109.436C110.109 34.6085 110.599 34.1761 110.599 33.5172C110.599 32.8583 110.109 32.4259 109.436 32.4259Z" fill="#111111"/>
<path d="M119.968 35.669H118.775V32.673H115.234V35.669H114.041V28.8019H115.234V31.6125H118.775V28.8019H119.968V35.669Z" fill="#111111"/>
<path d="M128.759 35.669H127.402L126.902 34.3511H123.78L123.28 35.669H121.923L124.596 28.8019H126.086L128.759 35.669ZM126.565 33.2907L125.341 30.0167L124.117 33.2907H126.565Z" fill="#111111"/>
<path d="M131.798 35.669H130.42L132.083 32.9715C131.267 32.8377 130.471 32.1788 130.471 30.9536C130.471 29.6873 131.349 28.8019 132.695 28.8019H135.685V35.669H134.491V33.1054H133.307L131.798 35.669ZM132.859 32.045H134.491V29.8623H132.859C132.185 29.8623 131.696 30.2947 131.696 30.9536C131.696 31.6125 132.185 32.045 132.859 32.045Z" fill="#111111"/>
<path d="M147.741 35.669H146.272L143.987 32.7759L143.395 33.476V35.669H142.201V28.8019H143.395V32.0758L146.058 28.8019H147.537L144.772 32.045L147.741 35.669Z" fill="#111111"/>
<path d="M152.427 35.7925C150.386 35.7925 148.948 34.2894 148.948 32.2406C148.948 30.1918 150.386 28.6886 152.427 28.6886C154.467 28.6886 155.906 30.1918 155.906 32.2406C155.906 34.2894 154.467 35.7925 152.427 35.7925ZM152.427 34.7218C153.794 34.7218 154.681 33.6511 154.681 32.2406C154.681 30.8198 153.794 29.7594 152.427 29.7594C151.049 29.7594 150.172 30.8198 150.172 32.2406C150.172 33.6511 151.049 34.7218 152.427 34.7218Z" fill="#111111"/>
<path d="M165.349 35.669H164.155V30.5727L162.064 35.669H161.554L159.473 30.5727V35.669H158.279V28.8019H159.962L161.809 33.3216L163.666 28.8019H165.349V35.669Z" fill="#111111"/>
<path d="M173.949 35.669H172.755V29.8623H169.215V35.669H168.022V28.8019H173.949V35.669Z" fill="#111111"/>
<path d="M182.74 35.669H181.383L180.883 34.3511H177.761L177.261 35.669H175.904L178.577 28.8019H180.067L182.74 35.669ZM180.546 33.2907L179.322 30.0167L178.098 33.2907H180.546Z" fill="#111111"/>
<path d="M190.635 35.669H189.441V32.673H185.901V35.669H184.707V28.8019H185.901V31.6125H189.441V28.8019H190.635V35.669Z" fill="#111111"/>
<path d="M194.457 35.669H193.304V28.8019H194.498V33.5687L197.977 28.8019H199.201V35.669H198.007V30.7683L194.457 35.669Z" fill="#111111"/>
<path d="M202.942 35.669H201.565L203.228 32.9715C202.412 32.8377 201.616 32.1788 201.616 30.9536C201.616 29.6873 202.493 28.8019 203.84 28.8019H206.829V35.669H205.636V33.1054H204.452L202.942 35.669ZM204.003 32.045H205.636V29.8623H204.003C203.33 29.8623 202.84 30.2947 202.84 30.9536C202.84 31.6125 203.33 32.045 204.003 32.045Z" fill="#111111"/>
</svg>
